<svg width="32" height="32" viewBox="0 0 32 32" fill="none" xmlns="http://www.w3.org/2000/svg">
<rect width="32" height="32" fill="#E5E5E5"/>
<g clip-path="url(#clip0_0_1)">
<rect width="1250" height="1560" transform="translate(-294 -870)" fill="#E7F6FF"/>
<g filter="url(#filter0_d_0_1)">
<rect x="-209" y="-785" width="1080" height="1526" rx="20" fill="white"/>
</g>
<rect x="-148.5" y="-193.5" width="209" height="259" rx="39.5" fill="white" stroke="#F3F3F3"/>
<rect x="0.5" y="0.5" width="31" height="31" rx="7.5" fill="white" stroke="#F2F2F2"/>
<path d="M20.6653 15.1312H17.2021V11.6682C17.2021 10.3328 15.1311 10.3328 15.1311 11.6682V15.1312H11.668C10.3329 15.1312 10.3329 17.2022 11.668 17.2022H15.1311V20.6652C15.1311 22.0005 17.2021 22.0005 17.2021 20.6652V17.2022H20.6653C22.0005 17.2022 22.0005 15.1312 20.6653 15.1312Z" fill="#D3D3D3"/>
</g>
<defs>
<filter id="filter0_d_0_1" x="-229" y="-795" width="1120" height="1566" filterUnits="userSpaceOnUse" color-interpolation-filters="sRGB">
<feFlood flood-opacity="0" result="BackgroundImageFix"/>
<feColorMatrix in="SourceAlpha" type="matrix" values="0 0 0 0 0 0 0 0 0 0 0 0 0 0 0 0 0 0 127 0" result="hardAlpha"/>
<feOffset dy="10"/>
<feGaussianBlur stdDeviation="10"/>
<feColorMatrix type="matrix" values="0 0 0 0 0 0 0 0 0 0 0 0 0 0 0 0 0 0 0.04 0"/>
<feBlend mode="normal" in2="BackgroundImageFix" result="effect1_dropShadow_0_1"/>
<feBlend mode="normal" in="SourceGraphic" in2="effect1_dropShadow_0_1" result="shape"/>
</filter>
<clipPath id="clip0_0_1">
<rect width="1250" height="1560" fill="white" transform="translate(-294 -870)"/>
</clipPath>
</defs>
</svg>
